<?xml version="1.0" encoding="utf-8"?>
<!-- Generator: Adobe Illustrator 22.1.0, SVG Export Plug-In . SVG Version: 6.00 Build 0)  -->
<svg version="1.1" xmlns="http://www.w3.org/2000/svg" xmlns:xlink="http://www.w3.org/1999/xlink" x="0px" y="0px"
	 viewBox="0 0 32.8 56.7" style="enable-background:new 0 0 32.8 56.7;" xml:space="preserve">
<style type="text/css">
	.st0{fill:#FFFFFF;}
</style>
<g id="Background">
</g>
<g id="Objects">
	<g id="Favorite">
	</g>
	<g id="Favorite_1_">
	</g>
	<g id="Favorite_2_">
	</g>
	<g id="Favorite_3_">
	</g>
	<g id="Favorite_4_">
	</g>
	<g id="Favorite_5_">
	</g>
	<g id="Favorite_6_">
	</g>
	<g id="Favorite_7_">
	</g>
	<g id="Favorite_8_">
	</g>
	<g id="Favorite_9_">
	</g>
	<g id="Favorite_10_">
	</g>
	<g id="Favorite_11_">
	</g>
	<g id="Favorite_12_">
	</g>
	<g>
		<g>
			<path class="st0" d="M17.7,4.5c0.8,0,2,0.9,3,2.7c0.1,0.1,0.2,0.3,0.2,0.5c1.7,0.2,3.4,0.4,5.2,0.5c-1.7-4.7-4.7-7.9-8.1-8.1
				c-2.9-0.2-5.9,1.6-8.3,4.6c1.5,0.6,3,1.2,4.6,1.6C15.5,5.2,16.7,4.5,17.7,4.5z"/>
		</g>
		<g>
			<path class="st0" d="M21.8,9.5c0.7,1.9,1.2,4,1.3,6.4c1.5,0.1,3,0.2,4.5,0.2c-0.1-2.2-0.4-4.3-1-6.3C25,9.8,23.4,9.7,21.8,9.5z"
				/>
		</g>
		<g>
			<path class="st0" d="M13.1,7.7c-1.5-0.5-3-1-4.4-1.6C7.8,7.5,7,9.2,6.4,11c1.3,0.7,2.7,1.4,4.2,2C11.3,10.8,12.2,9,13.1,7.7z"/>
		</g>
		<g>
			<path class="st0" d="M10.2,14.6c-1.5-0.6-2.9-1.2-4.2-2c-0.3,1.4-0.6,2.9-0.7,4.4c1.4,0.8,2.9,1.6,4.4,2.3
				C9.7,17.7,9.9,16.1,10.2,14.6z"/>
		</g>
		<g>
			<path class="st0" d="M22.5,22.6c1.5,0.2,3,0.3,4.6,0.3c0.4-1.7,0.5-3.4,0.6-5.1c-1.5,0-3.1-0.1-4.5-0.2
				C23.1,19.3,22.9,21,22.5,22.6z"/>
		</g>
		<g>
			<path class="st0" d="M10,24.9c-0.2-1.3-0.3-2.5-0.3-3.7C8,20.6,6.5,19.8,5.1,19c-0.1,1.6,0,3.2,0.2,5c1.5,0.9,3.2,1.8,5,2.5
				C10.2,25.9,10.1,25.4,10,24.9z"/>
		</g>
		<g>
			<path class="st0" d="M21.3,26.4c-0.4,1-0.8,1.9-1.2,2.7c1.5,0.2,3.1,0.4,4.7,0.5c0.2-0.5,0.4-0.9,0.6-1.4
				c0.5-1.2,0.9-2.4,1.3-3.6c-1.6,0-3.1-0.2-4.6-0.3C21.8,25,21.6,25.7,21.3,26.4z"/>
		</g>
		<g>
			<path class="st0" d="M23.6,41l-6.5-0.5c-0.7-3.5-0.4-6.3,0.5-9.2h6.6c-2.2-0.2-4.3-0.5-6.3-0.9c0.5-1.5,1.2-3.1,1.9-4.8
				c2.9-6.3,1.9-13.7-0.5-17.6c-0.8-1.4-1.5-1.8-1.7-1.8c-0.4,0-1.5,0.6-2.6,1.8c-2.4,2.8-4.6,8.7-3.3,16.6c0.2,1.5,0.5,3,0.8,4.4
				c-2.5-0.8-4.8-1.8-6.9-3c0.3,1.8,0.7,3.5,1,5.2h6.4c0.5,2.8,1,5.8,1.1,8.9l-6.3-0.5c0.1,1.3,0.1,2.6,0,4
				c-0.5,6.6,2.2,12.9,9.1,12.9c5.8,0,10.5-5.9,7.5-13.5C24,42.4,23.8,41.7,23.6,41z"/>
		</g>
	</g>
</g>
</svg>
