<svg id="picto_" data-name="picto " xmlns="http://www.w3.org/2000/svg" width="35.4" height="22.7" viewBox="0 0 35.4 22.7">
  <path id="Tracé_17" data-name="Tracé 17" d="M14.2,22.7,0,11.4,14.1,0V4.2l3.6-2.9,3.6,2.9V0L35.4,11.4,21.2,22.7V18.6l-3.5,2.8-3.5-2.8Zm-2-8.2,5.5,4.4,5.5-4.4v4.1l9.1-7.2-9-7.3V8.3L17.8,3.8,12.3,8.3V4.1l-9,7.3,9.1,7.2Z" fill="#6c3"/>
  <path id="Tracé_18" data-name="Tracé 18" d="M10.5,7.2,5.4,11.4l5.1,4.1Z" fill="#6c3"/>
  <path id="Tracé_19" data-name="Tracé 19" d="M17.7,7.6,13,11.4l4.7,3.7,4.7-3.7Z" fill="#6c3"/>
  <path id="Tracé_20" data-name="Tracé 20" d="M24.9,15.5,30,11.3,24.9,7.2Z" fill="#6c3"/>
</svg>
