<svg xmlns="http://www.w3.org/2000/svg" xmlns:xlink="http://www.w3.org/1999/xlink" width="65" height="65" viewBox="0 0 65 65">
  <defs>
    <clipPath id="clip-path">
      <rect id="Rectangle_27" data-name="Rectangle 27" width="65" height="65" transform="translate(1165 6476)"/>
    </clipPath>
  </defs>
  <g id="twitter" transform="translate(-1165 -6476)">
    <g id="Groupe_de_masques_5" data-name="Groupe de masques 5" clip-path="url(#clip-path)">
      <g id="twitter-2" data-name="twitter" transform="translate(1165 6476)">
        <g id="Groupe_24" data-name="Groupe 24">
          <path id="Tracé_25" data-name="Tracé 25" d="M65,12.346a27.783,27.783,0,0,1-7.678,2.1,13.251,13.251,0,0,0,5.862-7.365,26.63,26.63,0,0,1-8.45,3.226,13.325,13.325,0,0,0-23.051,9.112,13.721,13.721,0,0,0,.309,3.039A37.718,37.718,0,0,1,4.526,8.523a13.329,13.329,0,0,0,4.095,17.81A13.16,13.16,0,0,1,2.6,24.692v.146A13.387,13.387,0,0,0,13.276,37.932a13.3,13.3,0,0,1-3.494.439,11.782,11.782,0,0,1-2.523-.228,13.452,13.452,0,0,0,12.452,9.283A26.775,26.775,0,0,1,3.189,53.109,24.959,24.959,0,0,1,0,52.926a37.515,37.515,0,0,0,20.443,5.98c24.521,0,37.927-20.312,37.927-37.919,0-.589-.02-1.158-.049-1.722A26.584,26.584,0,0,0,65,12.346Z" fill="#fff"/>
        </g>
      </g>
    </g>
  </g>
</svg>
