<svg xmlns="http://www.w3.org/2000/svg" xmlns:xlink="http://www.w3.org/1999/xlink" width="40.133" height="42.377" viewBox="0 0 40.133 42.377">
  <defs>
    <clipPath id="clip-path">
      <rect id="Rectangle_21" data-name="Rectangle 21" width="40.133" height="42.377"/>
    </clipPath>
  </defs>
  <g id="picto_Yt_Stéphane" data-name="picto Yt Stéphane" transform="translate(0 0)">
    <g id="Groupe_de_masques_8" data-name="Groupe de masques 8" clip-path="url(#clip-path)">
      <g id="youtube" transform="translate(0 1.122)">
        <g id="Groupe_26" data-name="Groupe 26">
          <path id="Tracé_30" data-name="Tracé 30" d="M38.427,8.93c-1.089-1.936-2.27-2.293-4.675-2.428-2.4-.163-8.445-.231-13.68-.231s-11.29.068-13.69.228C3.981,6.637,2.8,6.991,1.7,8.93.577,10.864,0,14.195,0,20.059v.02c0,5.839.577,9.2,1.7,11.109,1.1,1.936,2.28,2.288,4.681,2.451,2.4.14,8.448.223,13.693.223s11.277-.083,13.683-.221c2.405-.163,3.587-.514,4.675-2.451,1.131-1.914,1.7-5.27,1.7-11.109v-.02C40.133,14.195,39.561,10.864,38.427,8.93ZM15.05,27.591V12.542l12.542,7.525Z" fill="#fff"/>
        </g>
      </g>
    </g>
  </g>
</svg>
